<svg width="323" height="64" viewBox="0 0 323 64" fill="none" xmlns="http://www.w3.org/2000/svg">
<rect x="8.75769" y="21.8459" width="32.1784" height="32.1784" rx="6" transform="rotate(-24 8.75769 21.8459)" fill="#FFCC00"/>
<g clip-path="url(#clip0_43_57)" filter="url(#filter0_d_43_57)">
<path d="M38.8674 36.3107C38.6475 36.4086 38.3986 36.4385 38.1504 36.3879L32.3079 35.1837L29.2933 40.3314C29.1686 40.5451 28.9796 40.7139 28.7532 40.8137C28.5268 40.9136 28.2747 40.9394 28.0328 40.8874C27.7911 40.8362 27.5716 40.7102 27.4057 40.5271C27.2398 40.3441 27.1358 40.1133 27.1085 39.8678L26.3869 33.8018L20.6212 32.6632C20.3795 32.61 20.1607 32.4821 19.9957 32.2977C19.8307 32.1133 19.7279 31.8816 19.7018 31.6356C19.6765 31.3898 19.729 31.1422 19.852 30.9279C19.975 30.7136 20.1622 30.5434 20.3873 30.4413L25.8192 28.013L25.2354 22.0443C25.2115 21.7983 25.2655 21.5511 25.3899 21.3376C25.5143 21.1241 25.7027 20.9551 25.9284 20.8546C26.1542 20.7541 26.4058 20.7271 26.6477 20.7776C26.8896 20.828 27.1095 20.9533 27.2763 21.1356L31.2919 25.5765L36.7589 23.1522C36.9855 23.0528 37.2376 23.0274 37.4794 23.0795C37.7212 23.1316 37.9405 23.2586 38.1061 23.4424C38.2716 23.6263 38.375 23.8576 38.4016 24.1035C38.4282 24.3495 38.3766 24.5976 38.2541 24.8125L35.2423 29.8591L39.2673 34.4543C39.4316 34.6388 39.5336 34.8704 39.5587 35.1162C39.5838 35.3619 39.5308 35.6094 39.4071 35.8232C39.2837 36.0391 39.0947 36.2099 38.8674 36.3107Z" fill="#6200EE"/>
</g>
<rect width="32.1784" height="32.1785" rx="6" transform="matrix(-0.913545 -0.406737 -0.406737 0.913545 79.2218 21.8459)" fill="#FFCC00"/>
<g clip-path="url(#clip1_43_57)" filter="url(#filter1_d_43_57)">
<path d="M49.112 36.3107C49.3319 36.4086 49.5808 36.4385 49.8291 36.3879L55.6716 35.1837L58.6861 40.3314C58.8108 40.5451 58.9999 40.7139 59.2262 40.8137C59.4526 40.9136 59.7048 40.9394 59.9467 40.8874C60.1884 40.8362 60.4078 40.7102 60.5738 40.5271C60.7397 40.3441 60.8437 40.1133 60.8709 39.8678L61.5926 33.8018L67.3583 32.6632C67.5999 32.61 67.8187 32.4821 67.9837 32.2977C68.1487 32.1133 68.2515 31.8816 68.2777 31.6356C68.303 31.3898 68.2505 31.1422 68.1275 30.9279C68.0045 30.7136 67.8172 30.5434 67.5922 30.4413L62.1602 28.013L62.7441 22.0443C62.768 21.7983 62.7139 21.5511 62.5895 21.3376C62.4652 21.1241 62.2768 20.9551 62.051 20.8546C61.8253 20.7541 61.5736 20.7271 61.3317 20.7776C61.0898 20.828 60.8699 20.9533 60.7032 21.1356L56.6876 25.5765L51.2206 23.1522C50.994 23.0528 50.7419 23.0274 50.5 23.0795C50.2582 23.1316 50.039 23.2586 49.8734 23.4424C49.7079 23.6263 49.6044 23.8576 49.5779 24.1035C49.5513 24.3495 49.6029 24.5976 49.7253 24.8125L52.7372 29.8591L48.7122 34.4543C48.5478 34.6388 48.4458 34.8704 48.4207 35.1162C48.3956 35.3619 48.4487 35.6094 48.5724 35.8232C48.6957 36.0391 48.8848 36.2099 49.112 36.3107Z" fill="#6200EE"/>
</g>
<path d="M124.432 41.544C124.021 41.88 123.461 42.16 122.752 42.384C122.08 42.608 121.296 42.72 120.4 42.72C119.243 42.72 118.272 42.5707 117.488 42.272C116.704 41.9733 116.2 41.4693 115.976 40.76C114.707 37.2133 113.624 34.264 112.728 31.912C111.869 29.56 111.197 27.5253 110.712 25.808H110.432C110.32 28.16 110.227 30.3067 110.152 32.248C110.077 34.1893 110.021 36.0933 109.984 37.96C109.947 39.7893 109.891 41.656 109.816 43.56C109.741 45.464 109.629 47.5547 109.48 49.832C109.069 49.944 108.509 50.0747 107.8 50.224C107.128 50.3733 106.456 50.448 105.784 50.448C104.365 50.448 103.245 50.2053 102.424 49.72C101.64 49.2347 101.248 48.3947 101.248 47.2C101.248 46.3787 101.285 45.1653 101.36 43.56C101.472 41.9173 101.584 40.0507 101.696 37.96C101.845 35.832 101.976 33.592 102.088 31.24C102.237 28.888 102.387 26.5733 102.536 24.296C102.723 21.9813 102.891 19.8533 103.04 17.912C103.339 17.464 103.936 17.016 104.832 16.568C105.728 16.0827 106.96 15.84 108.528 15.84C110.208 15.84 111.552 16.12 112.56 16.68C113.605 17.2027 114.352 18.08 114.8 19.312C115.36 20.656 115.957 22.224 116.592 24.016C117.227 25.7707 117.843 27.5627 118.44 29.392C119.075 31.184 119.653 32.808 120.176 34.264H120.456C121.501 30.9787 122.565 27.768 123.648 24.632C124.768 21.496 125.72 18.8827 126.504 16.792C127.027 16.4933 127.68 16.2693 128.464 16.12C129.285 15.9333 130.144 15.84 131.04 15.84C132.645 15.84 133.933 16.0827 134.904 16.568C135.912 17.016 136.509 17.7067 136.696 18.64C136.845 19.3493 136.995 20.4693 137.144 22C137.331 23.5307 137.517 25.304 137.704 27.32C137.891 29.2987 138.077 31.3893 138.264 33.592C138.451 35.7573 138.619 37.8853 138.768 39.976C138.955 42.0293 139.104 43.8773 139.216 45.52C139.328 47.1627 139.403 48.4693 139.44 49.44C138.88 49.776 138.283 50.0187 137.648 50.168C137.051 50.3547 136.285 50.448 135.352 50.448C134.157 50.448 133.131 50.224 132.272 49.776C131.451 49.328 131.003 48.4693 130.928 47.2C130.741 44.288 130.592 41.5253 130.48 38.912C130.368 36.2613 130.275 33.8533 130.2 31.688C130.163 29.4853 130.107 27.6 130.032 26.032H129.752C129.267 27.6373 128.576 29.672 127.68 32.136C126.821 34.5627 125.739 37.6987 124.432 41.544ZM156.686 44.68C157.545 44.68 158.385 44.6053 159.206 44.456C160.065 44.2693 160.681 44.064 161.054 43.84V38.464L156.35 38.912C155.081 38.9867 154.073 39.248 153.326 39.696C152.58 40.144 152.206 40.816 152.206 41.712C152.206 42.608 152.561 43.336 153.27 43.896C153.98 44.4187 155.118 44.68 156.686 44.68ZM156.35 22.28C160.233 22.28 163.332 23.1013 165.646 24.744C167.961 26.3493 169.118 28.8507 169.118 32.248V44.96C169.118 45.8933 168.876 46.6587 168.39 47.256C167.905 47.816 167.289 48.3013 166.542 48.712C165.422 49.384 164.022 49.9067 162.342 50.28C160.7 50.6907 158.814 50.896 156.686 50.896C152.878 50.896 149.836 50.1493 147.558 48.656C145.318 47.1627 144.198 44.9413 144.198 41.992C144.198 39.4533 144.982 37.512 146.55 36.168C148.118 34.7867 150.452 33.9467 153.55 33.648L160.998 32.864V32.192C160.998 30.9227 160.494 30.008 159.486 29.448C158.516 28.888 157.116 28.608 155.286 28.608C153.868 28.608 152.468 28.776 151.086 29.112C149.742 29.448 148.529 29.84 147.446 30.288C146.998 29.9893 146.606 29.5413 146.27 28.944C145.972 28.3093 145.822 27.656 145.822 26.984C145.822 25.416 146.681 24.2773 148.398 23.568C149.481 23.12 150.732 22.8027 152.15 22.616C153.606 22.392 155.006 22.28 156.35 22.28ZM175.57 35.216H183.802V41.208C183.802 42.2533 184.138 43.0187 184.81 43.504C185.482 43.9893 186.434 44.232 187.666 44.232C188.226 44.232 188.823 44.176 189.458 44.064C190.13 43.9147 190.69 43.7467 191.138 43.56C191.436 43.896 191.698 44.3067 191.922 44.792C192.183 45.2773 192.314 45.8373 192.314 46.472C192.314 47.7413 191.791 48.7867 190.746 49.608C189.7 50.4293 187.946 50.84 185.482 50.84C182.346 50.84 179.9 50.1307 178.146 48.712C176.428 47.2933 175.57 44.9787 175.57 41.768V35.216ZM180.834 30.12V23.736H191.586C191.772 24.0347 191.959 24.464 192.146 25.024C192.332 25.584 192.426 26.2 192.426 26.872C192.426 27.992 192.164 28.8133 191.642 29.336C191.156 29.8587 190.484 30.12 189.626 30.12H180.834ZM183.802 36.616H175.57V16.512C175.943 16.4 176.466 16.288 177.138 16.176C177.81 16.0267 178.519 15.952 179.266 15.952C180.871 15.952 182.028 16.232 182.738 16.792C183.447 17.352 183.802 18.3787 183.802 19.872V36.616ZM211.565 28.888C209.549 28.888 207.813 29.56 206.357 30.904C204.938 32.2107 204.229 34.1333 204.229 36.672C204.229 39.1733 204.919 41.0587 206.301 42.328C207.682 43.5973 209.418 44.232 211.509 44.232C212.741 44.232 213.805 44.0827 214.701 43.784C215.634 43.448 216.437 43.0933 217.109 42.72C217.743 43.168 218.229 43.672 218.565 44.232C218.901 44.7547 219.069 45.408 219.069 46.192C219.069 47.5733 218.322 48.6933 216.829 49.552C215.335 50.4107 213.263 50.84 210.613 50.84C207.663 50.84 205.069 50.3173 202.829 49.272C200.589 48.1893 198.853 46.584 197.621 44.456C196.389 42.328 195.773 39.7333 195.773 36.672C195.773 33.424 196.445 30.7547 197.789 28.664C199.133 26.536 200.906 24.9493 203.109 23.904C205.349 22.8213 207.775 22.28 210.389 22.28C212.965 22.28 214.981 22.7467 216.437 23.68C217.93 24.6133 218.677 25.7707 218.677 27.152C218.677 27.824 218.509 28.44 218.173 29C217.874 29.5227 217.519 29.9893 217.109 30.4C216.399 30.0267 215.578 29.6907 214.645 29.392C213.749 29.056 212.722 28.888 211.565 28.888ZM250.111 38.576H241.767V33.592C241.767 31.8747 241.319 30.6613 240.423 29.952C239.564 29.2053 238.463 28.832 237.119 28.832C235.924 28.832 234.842 29.056 233.871 29.504C232.938 29.952 232.135 30.456 231.463 31.016L231.239 24.296C232.098 23.8107 233.162 23.3627 234.431 22.952C235.7 22.504 237.1 22.28 238.631 22.28C242.178 22.28 244.978 23.1947 247.031 25.024C249.084 26.816 250.111 29.5227 250.111 33.144V38.576ZM224.407 35.216H232.695V49.944C232.322 50.056 231.799 50.1493 231.127 50.224C230.455 50.336 229.727 50.392 228.943 50.392C227.375 50.392 226.218 50.112 225.471 49.552C224.762 48.992 224.407 47.984 224.407 46.528V35.216ZM241.767 35.216H250.111V49.944C249.738 50.056 249.215 50.1493 248.543 50.224C247.871 50.336 247.143 50.392 246.359 50.392C244.754 50.392 243.578 50.112 242.831 49.552C242.122 48.992 241.767 47.984 241.767 46.528V35.216ZM232.695 39.528H224.407V13.544C224.743 13.432 225.247 13.32 225.919 13.208C226.591 13.096 227.319 13.04 228.103 13.04C229.708 13.04 230.866 13.32 231.575 13.88C232.322 14.44 232.695 15.4667 232.695 16.96V39.528ZM271.847 50.952C268.786 50.952 266.154 50.4107 263.951 49.328C261.786 48.208 260.106 46.6587 258.911 44.68C257.754 42.7013 257.175 40.3867 257.175 37.736V34.04H265.743V37.512C265.743 39.5653 266.303 41.1707 267.423 42.328C268.581 43.448 270.055 44.008 271.847 44.008C273.639 44.008 275.095 43.448 276.215 42.328C277.373 41.1707 277.951 39.5653 277.951 37.512V34.04H286.519V37.736C286.519 40.3867 285.941 42.7013 284.783 44.68C283.626 46.6587 281.946 48.208 279.743 49.328C277.541 50.4107 274.909 50.952 271.847 50.952ZM265.743 35.72H257.175V15.952C257.586 15.8773 258.165 15.784 258.911 15.672C259.658 15.56 260.405 15.504 261.151 15.504C262.757 15.504 263.914 15.784 264.623 16.344C265.37 16.904 265.743 17.968 265.743 19.536V35.72ZM286.519 35.832H277.951V15.952C278.362 15.8773 278.941 15.784 279.687 15.672C280.471 15.56 281.218 15.504 281.927 15.504C283.533 15.504 284.69 15.784 285.399 16.344C286.146 16.904 286.519 17.968 286.519 19.536V35.832ZM306.857 50.84C305.439 50.84 304.169 50.6533 303.049 50.28C301.929 49.944 300.959 49.552 300.137 49.104V42.104C300.772 42.6267 301.537 43.112 302.433 43.56C303.367 44.008 304.412 44.232 305.569 44.232C307.623 44.232 309.209 43.5787 310.329 42.272C311.487 40.9653 312.065 39.0053 312.065 36.392C312.065 34.6 311.804 33.1627 311.281 32.08C310.796 30.96 310.087 30.1387 309.153 29.616C308.22 29.0933 307.119 28.832 305.849 28.832C304.991 28.832 304.207 28.944 303.497 29.168C302.825 29.3547 302.247 29.5973 301.761 29.896V47.032H293.529V28.72C293.529 27.7867 293.716 27.0213 294.089 26.424C294.463 25.7893 295.041 25.2293 295.825 24.744C296.945 24.0347 298.364 23.456 300.081 23.008C301.799 22.5227 303.721 22.28 305.849 22.28C308.724 22.28 311.263 22.784 313.465 23.792C315.705 24.7627 317.441 26.2933 318.673 28.384C319.905 30.4373 320.521 33.1067 320.521 36.392C320.521 39.5653 319.924 42.216 318.729 44.344C317.535 46.472 315.911 48.096 313.857 49.216C311.804 50.2987 309.471 50.84 306.857 50.84ZM301.817 44.904V59.968C301.444 60.08 300.921 60.192 300.249 60.304C299.577 60.416 298.849 60.472 298.065 60.472C296.497 60.472 295.34 60.192 294.593 59.632C293.884 59.072 293.529 58.0453 293.529 56.552V44.904H301.817Z" fill="#E0E0E0"/>
<defs>
<filter id="filter0_d_43_57" x="11.8385" y="15.8386" width="36.3231" height="36.3231" filterUnits="userSpaceOnUse" color-interpolation-filters="sRGB">
<feFlood flood-opacity="0" result="BackgroundImageFix"/>
<feColorMatrix in="SourceAlpha" type="matrix" values="0 0 0 0 0 0 0 0 0 0 0 0 0 0 0 0 0 0 127 0" result="hardAlpha"/>
<feOffset dy="4"/>
<feGaussianBlur stdDeviation="2"/>
<feComposite in2="hardAlpha" operator="out"/>
<feColorMatrix type="matrix" values="0 0 0 0 0 0 0 0 0 0 0 0 0 0 0 0 0 0 0.25 0"/>
<feBlend mode="normal" in2="BackgroundImageFix" result="effect1_dropShadow_43_57"/>
<feBlend mode="normal" in="SourceGraphic" in2="effect1_dropShadow_43_57" result="shape"/>
</filter>
<filter id="filter1_d_43_57" x="39.8179" y="15.8386" width="36.3231" height="36.3231" filterUnits="userSpaceOnUse" color-interpolation-filters="sRGB">
<feFlood flood-opacity="0" result="BackgroundImageFix"/>
<feColorMatrix in="SourceAlpha" type="matrix" values="0 0 0 0 0 0 0 0 0 0 0 0 0 0 0 0 0 0 127 0" result="hardAlpha"/>
<feOffset dy="4"/>
<feGaussianBlur stdDeviation="2"/>
<feComposite in2="hardAlpha" operator="out"/>
<feColorMatrix type="matrix" values="0 0 0 0 0 0 0 0 0 0 0 0 0 0 0 0 0 0 0.25 0"/>
<feBlend mode="normal" in2="BackgroundImageFix" result="effect1_dropShadow_43_57"/>
<feBlend mode="normal" in="SourceGraphic" in2="effect1_dropShadow_43_57" result="shape"/>
</filter>
<clipPath id="clip0_43_57">
<rect width="21.4523" height="21.4523" fill="white" transform="translate(15.8385 24.5641) rotate(-24)"/>
</clipPath>
<clipPath id="clip1_43_57">
<rect width="21.4523" height="21.4523" fill="white" transform="matrix(-0.913545 -0.406737 -0.406737 0.913545 72.141 24.5641)"/>
</clipPath>
</defs>
</svg>
