<svg width="50" height="51" viewBox="0 0 50 51" fill="none" xmlns="http://www.w3.org/2000/svg">
<path d="M37.8985 46.9212C37.3374 46.9212 36.779 46.7489 36.2985 46.4059L24.9999 38.3031L13.7013 46.4059C13.2331 46.7426 12.6706 46.9229 12.0939 46.9209C11.5172 46.9189 10.9559 46.7348 10.4902 46.3948C10.0239 46.0567 9.6762 45.5803 9.49642 45.0332C9.31663 44.4861 9.31395 43.8962 9.48876 43.3475L13.7027 29.7475L2.50543 21.8573C2.04138 21.5148 1.69675 21.0351 1.52028 20.486C1.34382 19.9369 1.34445 19.3462 1.5221 18.7975C1.70115 18.2502 2.04769 17.7729 2.51275 17.4332C2.97781 17.0935 3.53787 16.9086 4.11377 16.9045L17.9818 16.8837L22.3971 3.62116C22.5793 3.07481 22.9288 2.59962 23.396 2.2629C23.8633 1.92619 24.4246 1.745 25.0006 1.745C25.5765 1.745 26.1379 1.92619 26.6051 2.26291C27.0724 2.59962 27.4218 3.07481 27.604 3.62116L31.9443 16.8837L45.8832 16.9045C46.4598 16.9077 47.0207 17.0926 47.4862 17.4328C47.9517 17.773 48.2982 18.2513 48.4765 18.7996C48.6547 19.348 48.6556 19.9386 48.479 20.4875C48.3025 21.0363 47.9574 21.5156 47.4929 21.8573L36.2957 29.7475L40.5096 43.3475C40.6848 43.8961 40.6824 44.4859 40.5029 45.033C40.3233 45.5802 39.9757 46.0567 39.5096 46.3948C39.0424 46.7375 38.4779 46.9219 37.8985 46.9212Z" fill="#C3A0F5"/>
</svg>
